<svg width="25" height="25" viewBox="0 0 25 25" fill="none" xmlns="http://www.w3.org/2000/svg">
<path d="M17.7084 14.5834V20.8334M14.5834 17.7084H20.8334M6.25002 10.4167H8.33335C9.48395 10.4167 10.4167 9.48395 10.4167 8.33335V6.25002C10.4167 5.09943 9.48395 4.16669 8.33335 4.16669H6.25002C5.09943 4.16669 4.16669 5.09943 4.16669 6.25002V8.33335C4.16669 9.48395 5.09943 10.4167 6.25002 10.4167ZM16.6667 10.4167H18.75C19.9006 10.4167 20.8334 9.48395 20.8334 8.33335V6.25002C20.8334 5.09943 19.9006 4.16669 18.75 4.16669H16.6667C15.5161 4.16669 14.5834 5.09943 14.5834 6.25002V8.33335C14.5834 9.48395 15.5161 10.4167 16.6667 10.4167ZM6.25002 20.8334H8.33335C9.48395 20.8334 10.4167 19.9006 10.4167 18.75V16.6667C10.4167 15.5161 9.48395 14.5834 8.33335 14.5834H6.25002C5.09943 14.5834 4.16669 15.5161 4.16669 16.6667V18.75C4.16669 19.9006 5.09943 20.8334 6.25002 20.8334Z" stroke="white" stroke-width="2" stroke-linecap="round" stroke-linejoin="round"/>
</svg>
