<svg width="42" height="42" viewBox="0 0 42 42" fill="none" xmlns="http://www.w3.org/2000/svg">
<g clip-path="url(#clip0_31_71)">
<path d="M5.25 19.25H0V15.75H5.25V19.25ZM5.25 24.5H0V28H5.25V24.5ZM8.75 8.96L5.04 5.25L2.555 7.7175L6.2825 11.445L8.75 8.96V8.96ZM17.5 8.75V3.5H14V8.75H17.5ZM42 15.75H36.75V19.25H42V15.75ZM28 8.75V3.5H24.5V8.75H28ZM35.7175 11.445L39.445 7.735L36.96 5.25L33.25 8.96L35.7175 11.445ZM42 24.5H36.75V28H42V24.5ZM33.25 15.75V28C33.25 29.925 31.675 31.5 29.75 31.5H26.25V35H15.75V31.5H12.25C10.325 31.5 8.75 29.925 8.75 28V15.75C8.75 13.825 10.325 12.25 12.25 12.25H29.75C31.675 12.25 33.25 13.825 33.25 15.75ZM29.75 15.75H12.25V28H29.75V15.75ZM33.25 34.79L36.96 38.5L39.445 36.0325L35.7175 32.3225L33.25 34.79V34.79ZM6.2825 32.305L2.5725 36.0325L5.04 38.5L8.75 34.79L6.2825 32.305Z" fill="white"/>
</g>
<defs>
<clipPath id="clip0_31_71">
<rect width="42" height="42" fill="white"/>
</clipPath>
</defs>
</svg>
