<svg width="39" height="39" viewBox="0 0 39 39" fill="none" xmlns="http://www.w3.org/2000/svg">
<path d="M3.25 8.125C3.25 7.69402 3.4212 7.2807 3.72595 6.97595C4.0307 6.67121 4.44402 6.5 4.875 6.5H27.625C28.056 6.5 28.4693 6.67121 28.7741 6.97595C29.0788 7.2807 29.25 7.69402 29.25 8.125V15.4375L35.75 10.5625V29.25L29.25 24.375V30.875C29.25 31.306 29.0788 31.7193 28.7741 32.0241C28.4693 32.3288 28.056 32.5 27.625 32.5H4.875C4.44402 32.5 4.0307 32.3288 3.72595 32.0241C3.4212 31.7193 3.25 31.306 3.25 30.875V8.125Z" stroke="white" stroke-width="2.66667" stroke-linecap="round" stroke-linejoin="round"/>
<path d="M13.8125 21.125C16.0562 21.125 17.875 19.3062 17.875 17.0625C17.875 14.8188 16.0562 13 13.8125 13C11.5688 13 9.75 14.8188 9.75 17.0625C9.75 19.3062 11.5688 21.125 13.8125 21.125Z" stroke="white" stroke-width="2.66667" stroke-linecap="round" stroke-linejoin="round"/>
</svg>
