<svg width="42" height="42" viewBox="0 0 42 42" fill="none" xmlns="http://www.w3.org/2000/svg">
<path d="M22.75 8.40002C15.75 8.40002 15.75 33.6 22.75 33.6C29.75 33.6 38.5 28.875 38.5 21C38.5 13.125 29.75 8.40002 22.75 8.40002ZM22.925 30.1C22.225 29.4 21 26.25 21 21C21 15.75 22.225 12.6 22.925 11.9C28 12.075 35 15.225 35 21C35 26.775 28 29.925 22.925 30.1ZM3.5 8.75002H16.625C16.275 9.45002 15.75 10.15 15.575 11.2C15.4 11.55 15.4 11.9 15.225 12.25H3.5V8.75002ZM14 19.25H3.5V15.75H14.35C14.175 16.8 14.175 18.025 14 19.25V19.25ZM15.225 29.75C15.575 31.15 16.1 32.2 16.8 33.25H3.675V29.75H15.225ZM14.35 26.25H3.5V22.75H14C14.175 23.975 14.175 25.2 14.35 26.25Z" fill="white"/>
</svg>
