<svg width="42" height="42" viewBox="0 0 42 42" fill="none" xmlns="http://www.w3.org/2000/svg">
<path d="M27.0007 28.5005L29.75 36.75M12.25 36.75L19.25 15.75L12.25 36.75ZM22.75 15.75L25.34 23.5182L22.75 15.75Z" stroke="#888888" stroke-width="2.66667" stroke-linecap="round" stroke-linejoin="round"/>
<path d="M21 15.75C22.933 15.75 24.5 14.183 24.5 12.25C24.5 10.317 22.933 8.75 21 8.75C19.067 8.75 17.5 10.317 17.5 12.25C17.5 14.183 19.067 15.75 21 15.75Z" stroke="#888888" stroke-width="2.66667" stroke-linecap="round" stroke-linejoin="round"/>
<path d="M7 21C9.6705 26.1712 15.029 29.75 21 29.75C26.9675 29.75 32.3278 26.166 35 21" stroke="#888888" stroke-width="2.66667" stroke-linecap="round" stroke-linejoin="round"/>
<path d="M21 8.75V5.25" stroke="#888888" stroke-width="2.66667" stroke-linecap="round" stroke-linejoin="round"/>
</svg>
