<svg width="42" height="42" viewBox="0 0 42 42" fill="none" xmlns="http://www.w3.org/2000/svg">
<path d="M39.1183 21.8867L31.0333 18.1651V7.50174C31.0296 7.27802 30.9617 7.06009 30.8376 6.87392C30.7135 6.68776 30.5384 6.5412 30.3333 6.45174L21.5833 2.42674C21.4298 2.35566 21.2626 2.31885 21.0933 2.31885C20.9241 2.31885 20.7569 2.35566 20.6033 2.42674L11.8533 6.45174C11.6508 6.54546 11.4795 6.69529 11.3595 6.88346C11.2396 7.07164 11.1761 7.29026 11.1767 7.5134V18.1767L3.12668 21.8867C2.92417 21.9805 2.75279 22.1303 2.63285 22.3185C2.51292 22.5066 2.44946 22.7253 2.45002 22.9484V34.3584C2.44946 34.5815 2.51292 34.8002 2.63285 34.9883C2.75279 35.1765 2.92417 35.3263 3.12668 35.4201L11.8767 39.4451C12.0303 39.5161 12.1975 39.553 12.3667 39.553C12.5359 39.553 12.7031 39.5161 12.8567 39.4451L21.1167 35.6417L29.3767 39.4451C29.5303 39.5161 29.6975 39.553 29.8667 39.553C30.0359 39.553 30.2031 39.5161 30.3567 39.4451L39.1067 35.4201C39.3092 35.3263 39.4806 35.1765 39.6005 34.9883C39.7204 34.8002 39.7839 34.5815 39.7833 34.3584V22.9484C39.7849 22.7265 39.7232 22.5088 39.6054 22.3207C39.4876 22.1327 39.3187 21.9821 39.1183 21.8867V21.8867ZM35.84 22.9484L29.8783 25.6667L23.9167 22.9484L29.8783 20.2067L35.84 22.9484ZM21.1167 4.76007L27.0783 7.50174L21.1167 10.2434L15.1667 7.50174L21.1167 4.76007ZM12.3667 20.1951L18.3283 22.9367L12.3667 25.6667L6.40502 22.9484L12.3667 20.1951ZM19.95 33.6001L12.3667 37.1001L4.78335 33.6001V24.7684L11.8767 28.0001C12.0271 28.0677 12.1901 28.1026 12.355 28.1026C12.5199 28.1026 12.6829 28.0677 12.8333 28.0001L19.9267 24.7334L19.95 33.6001ZM13.5333 18.1651V9.3334L20.6267 12.6001C20.7803 12.6711 20.9475 12.708 21.1167 12.708C21.2859 12.708 21.4531 12.6711 21.6067 12.6001L28.7 9.3334V18.1767L21.1167 21.6767L13.5333 18.1651ZM37.4617 33.6117L29.8783 37.1117L22.2833 33.6117V24.7567L29.3883 28.0001C29.5372 28.066 29.6981 28.1 29.8608 28.1C30.0236 28.1 30.1845 28.066 30.3333 28.0001L37.4267 24.7334L37.4617 33.6117Z" fill="white"/>
</svg>
