<svg width="42" height="43" viewBox="0 0 42 43" fill="none" xmlns="http://www.w3.org/2000/svg">
<path d="M18.7599 17.4887C19.4589 17.1432 20.1895 16.8658 20.9416 16.6603L16.2749 4.09534C16.1092 3.6488 15.8108 3.26367 15.4197 2.99171C15.0287 2.71975 14.5638 2.57397 14.0874 2.57397C13.6111 2.57397 13.1462 2.71975 12.7552 2.99171C12.3641 3.26367 12.0657 3.6488 11.8999 4.09534L2.33328 29.5753C2.1898 29.9351 2.13811 30.3248 2.18288 30.7095C2.22764 31.0942 2.36744 31.4617 2.58968 31.7788C2.81193 32.096 3.10961 32.3528 3.4559 32.5262C3.80219 32.6996 4.1862 32.7841 4.57328 32.772H12.6699C12.3877 32.0173 12.1844 31.2353 12.0633 30.4387H4.57328L14.0699 4.91201L18.7599 17.4887Z" fill="#888888"/>
<path d="M37.3333 10.6052H25.6666C25.0477 10.6052 24.4543 10.8511 24.0167 11.2886C23.5791 11.7262 23.3333 12.3197 23.3333 12.9386V16.2636H24.1383C24.6484 16.2512 25.1589 16.2707 25.6666 16.3219V12.9386H37.3333V24.6052H35.7583C36.0095 25.3639 36.1854 26.1454 36.2833 26.9386H37.3333C37.6397 26.9386 37.9431 26.8782 38.2262 26.7609C38.5093 26.6437 38.7665 26.4718 38.9832 26.2551C39.1998 26.0385 39.3717 25.7812 39.489 25.4982C39.6062 25.2151 39.6666 24.9116 39.6666 24.6052V12.9386C39.6666 12.3197 39.4208 11.7262 38.9832 11.2886C38.5456 10.8511 37.9521 10.6052 37.3333 10.6052Z" fill="#888888"/>
<path d="M24.1384 18.5503C22.177 18.5503 20.2597 19.1319 18.6289 20.2216C16.9982 21.3112 15.7271 22.86 14.9765 24.672C14.226 26.484 14.0296 28.478 14.4122 30.4016C14.7949 32.3252 15.7393 34.0922 17.1262 35.4791C18.5131 36.866 20.2801 37.8104 22.2037 38.1931C24.1273 38.5757 26.1213 38.3793 27.9333 37.6288C29.7453 36.8782 31.2941 35.6071 32.3838 33.9764C33.4734 32.3456 34.055 30.4283 34.055 28.467C34.0519 25.8378 33.0061 23.3173 31.1471 21.4582C29.288 19.5992 26.7675 18.5534 24.1384 18.5503ZM24.1384 36.0503C22.6385 36.0503 21.1723 35.6055 19.9253 34.7723C18.6782 33.939 17.7062 32.7546 17.1323 31.369C16.5583 29.9833 16.4081 28.4585 16.7007 26.9875C16.9933 25.5165 17.7156 24.1653 18.7761 23.1047C19.8367 22.0442 21.1879 21.3219 22.6589 21.0293C24.1299 20.7367 25.6547 20.8869 27.0404 21.4609C28.426 22.0348 29.6104 23.0068 30.4437 24.2539C31.2769 25.501 31.7217 26.9671 31.7217 28.467C31.7186 30.4772 30.9187 32.4043 29.4972 33.8258C28.0757 35.2473 26.1486 36.0472 24.1384 36.0503Z" fill="#888888"/>
</svg>
