<svg width="16" height="16" viewBox="0 0 16 16" fill="none" xmlns="http://www.w3.org/2000/svg">
<path d="M1.00313 12.3406C1.00313 11.7281 0.871875 9.30623 2.77812 7.38123C4.04062 6.10935 5.65 5.4531 7.88437 5.33435C7.95 5.33123 8.00313 5.27498 8.00313 5.20935V2.62498C8.00313 2.52498 8.1125 2.4656 8.19688 2.51873L14.9437 6.96248C15.0188 7.01248 15.0188 7.12185 14.9437 7.17185L8.19688 11.6156C8.1125 11.6719 8.00313 11.6125 8.00313 11.5094V8.95935C8.00313 8.88748 7.94375 8.83123 7.87187 8.83435C6.49375 8.88748 5.7 9.17498 4.8375 9.55935C3.70937 10.0656 2.55937 11.15 1.88437 12.1687C1.475 12.7906 1.28437 13.2281 1.21562 13.4094C1.19375 13.4625 1.14375 13.4969 1.0875 13.4969H0.996875C1 13.1312 1.00313 12.6625 1.00313 12.3406V12.3406Z" fill="white"/>
</svg>
