<svg width="42" height="42" viewBox="0 0 42 42" fill="none" xmlns="http://www.w3.org/2000/svg">
<path d="M33.25 3.5H8.75C7.35761 3.5 6.02226 4.05312 5.03769 5.03769C4.05312 6.02226 3.5 7.35761 3.5 8.75V33.25C3.5 34.6424 4.05312 35.9777 5.03769 36.9623C6.02226 37.9469 7.35761 38.5 8.75 38.5H33.25C33.5378 38.496 33.8248 38.4667 34.1075 38.4125L34.6325 38.29H34.8425L35.49 38.045L35.7175 37.9225C35.8925 37.8175 36.085 37.73 36.26 37.6075C36.4937 37.4356 36.7158 37.2485 36.925 37.0475L37.0475 36.89C37.2193 36.7159 37.3773 36.5287 37.52 36.33L37.6775 36.1025C37.7997 35.9077 37.9051 35.7028 37.9925 35.49C38.0405 35.406 38.0815 35.3182 38.115 35.2275C38.2025 35.0175 38.255 34.79 38.325 34.5625V34.3C38.4242 33.9581 38.483 33.6056 38.5 33.25V8.75C38.5 7.35761 37.9469 6.02226 36.9623 5.03769C35.9777 4.05312 34.6424 3.5 33.25 3.5ZM8.75 35C8.28587 35 7.84075 34.8156 7.51256 34.4874C7.18437 34.1593 7 33.7141 7 33.25V25.7075L12.7575 19.9325C12.9202 19.7685 13.1137 19.6383 13.327 19.5494C13.5402 19.4606 13.769 19.4149 14 19.4149C14.231 19.4149 14.4598 19.4606 14.673 19.5494C14.8863 19.6383 15.0798 19.7685 15.2425 19.9325L30.2925 35H8.75ZM35 33.25C34.9984 33.4658 34.9568 33.6793 34.8775 33.88C34.8375 33.9653 34.7907 34.0472 34.7375 34.125C34.6907 34.1991 34.638 34.2693 34.58 34.335L25.2175 24.9725L26.7575 23.4325C26.9202 23.2685 27.1137 23.1383 27.327 23.0494C27.5402 22.9606 27.769 22.9149 28 22.9149C28.231 22.9149 28.4598 22.9606 28.673 23.0494C28.8863 23.1383 29.0798 23.2685 29.2425 23.4325L35 29.2075V33.25ZM35 24.255L31.71 21C30.7085 20.0497 29.3806 19.52 28 19.52C26.6194 19.52 25.2915 20.0497 24.29 21L22.75 22.54L17.71 17.5C16.7085 16.5497 15.3806 16.02 14 16.02C12.6194 16.02 11.2915 16.5497 10.29 17.5L7 20.755V8.75C7 8.28587 7.18437 7.84075 7.51256 7.51256C7.84075 7.18437 8.28587 7 8.75 7H33.25C33.7141 7 34.1593 7.18437 34.4874 7.51256C34.8156 7.84075 35 8.28587 35 8.75V24.255ZM23.625 10.5C23.1058 10.5 22.5983 10.654 22.1666 10.9424C21.7349 11.2308 21.3985 11.6408 21.1998 12.1205C21.0011 12.6001 20.9492 13.1279 21.0504 13.6371C21.1517 14.1463 21.4017 14.614 21.7688 14.9812C22.136 15.3483 22.6037 15.5983 23.1129 15.6996C23.6221 15.8008 24.1499 15.7489 24.6295 15.5502C25.1092 15.3515 25.5192 15.015 25.8076 14.5834C26.096 14.1517 26.25 13.6442 26.25 13.125C26.25 12.4288 25.9734 11.7611 25.4812 11.2688C24.9889 10.7766 24.3212 10.5 23.625 10.5Z" fill="#888888"/>
</svg>
