<svg width="25" height="25" viewBox="0 0 25 25" fill="none" xmlns="http://www.w3.org/2000/svg">
<path d="M10.7548 4.4972C11.199 2.6676 13.801 2.6676 14.2452 4.4972C14.5321 5.67909 15.8862 6.23997 16.9248 5.60714C18.5326 4.62749 20.3725 6.4674 19.3929 8.07519C18.76 9.11381 19.3209 10.4679 20.5028 10.7548C22.3324 11.199 22.3324 13.801 20.5028 14.2452C19.3209 14.5321 18.76 15.8862 19.3929 16.9248C20.3725 18.5326 18.5326 20.3725 16.9248 19.3929C15.8862 18.76 14.5321 19.3209 14.2452 20.5028C13.801 22.3324 11.199 22.3324 10.7548 20.5028C10.4679 19.3209 9.11381 18.76 8.0752 19.3929C6.4674 20.3725 4.62749 18.5326 5.60714 16.9248C6.23998 15.8862 5.67909 14.5321 4.4972 14.2452C2.6676 13.801 2.6676 11.199 4.4972 10.7548C5.67909 10.4679 6.23997 9.11381 5.60714 8.07519C4.62749 6.4674 6.4674 4.62749 8.07519 5.60713C9.11381 6.23997 10.4679 5.67909 10.7548 4.4972Z" stroke="white" stroke-width="2" stroke-linecap="round" stroke-linejoin="round"/>
<path d="M15.625 12.5C15.625 14.2259 14.2259 15.625 12.5 15.625C10.7741 15.625 9.375 14.2259 9.375 12.5C9.375 10.7741 10.7741 9.375 12.5 9.375C14.2259 9.375 15.625 10.7741 15.625 12.5Z" stroke="white" stroke-width="2" stroke-linecap="round" stroke-linejoin="round"/>
</svg>
