<svg width="42" height="42" viewBox="0 0 42 42" fill="none" xmlns="http://www.w3.org/2000/svg">
<g clip-path="url(#clip0_31_57)">
<path d="M19.6875 2.625C14.4661 2.625 9.45846 4.69921 5.76634 8.39134C2.07421 12.0835 0 17.0911 0 22.3125C0 27.5339 2.07421 32.5415 5.76634 36.2337C9.45846 39.9258 14.4661 42 19.6875 42C24.9089 42 29.9165 39.9258 33.6087 36.2337C37.3008 32.5415 39.375 27.5339 39.375 22.3125C39.375 17.0911 37.3008 12.0835 33.6087 8.39134C29.9165 4.69921 24.9089 2.625 19.6875 2.625V2.625ZM30.828 28.875C31.1798 27.216 31.4029 25.4546 31.4737 23.625H36.7001C36.5648 25.431 36.1403 27.2036 35.4427 28.875H30.828ZM8.547 15.75C8.1834 17.4785 7.96738 19.2349 7.90125 21H2.67488C2.8102 19.194 3.23473 17.4214 3.93225 15.75H8.547ZM28.1374 15.75C28.5311 17.43 28.77 19.1888 28.8461 21H21V15.75H28.1374ZM21 13.125V5.44162C21.5985 5.61487 22.1918 5.90888 22.7719 6.31838C23.8613 7.0875 24.906 8.27137 25.788 9.74137C26.3996 10.7599 26.9273 11.8913 27.3656 13.125H20.9974H21ZM13.587 9.74137C14.469 8.26875 15.5137 7.08488 16.6031 6.31838C17.1859 5.90888 17.7765 5.61487 18.375 5.44162V13.125H12.0067C12.4211 11.9484 12.9495 10.8151 13.5844 9.74137H13.587ZM18.375 15.75V21H10.5289C10.605 19.1888 10.8439 17.43 11.2376 15.75H18.375ZM3.93225 28.875C3.23473 27.2036 2.8102 25.431 2.67488 23.625H7.90125C7.97475 25.4546 8.19525 27.216 8.547 28.875H3.93225V28.875ZM10.5289 23.625H18.375V28.875H11.2376C10.8439 27.195 10.605 25.4362 10.5289 23.625V23.625ZM18.375 31.5V39.1834C17.7397 38.9918 17.1408 38.6955 16.6031 38.3066C15.5137 37.5375 14.469 36.3536 13.587 34.8836C12.9502 33.8105 12.4208 32.6771 12.0067 31.5H18.375ZM25.7906 34.8836C24.9086 36.3562 23.8639 37.5401 22.7745 38.3066C22.2365 38.695 21.6377 38.9913 21.0026 39.1834V31.5H27.3709C26.9299 32.7337 26.4022 33.8651 25.7906 34.8836V34.8836ZM21 28.875V23.625H28.8461C28.77 25.4362 28.5311 27.195 28.1374 28.875H21ZM31.4737 21C31.4063 19.235 31.1903 17.4788 30.828 15.75H35.4427C36.1436 17.4274 36.5636 19.1861 36.7001 21H31.4737ZM34.0699 13.125H30.1376C29.3737 10.7153 28.3185 8.60213 27.048 6.91425C28.7947 7.74893 30.3857 8.87646 31.752 10.248C32.634 11.13 33.4084 12.0908 34.0699 13.125V13.125ZM7.623 10.248C8.99027 8.87764 10.581 7.75026 12.327 6.91425C11.0591 8.60213 10.0013 10.7153 9.23738 13.125H5.30512C5.96662 12.0908 6.741 11.1274 7.623 10.248ZM5.30512 31.5H9.23738C10.0013 33.9097 11.0565 36.0229 12.327 37.7108C10.5803 36.8761 8.98927 35.7485 7.623 34.377C6.7486 33.5047 5.97142 32.54 5.30512 31.5V31.5ZM31.752 34.377C30.3847 35.7474 28.794 36.8747 27.048 37.7108C28.3159 36.0229 29.3737 33.9097 30.1376 31.5H34.0699C33.4042 32.5405 32.627 33.5052 31.752 34.377V34.377Z" fill="white"/>
</g>
<defs>
<clipPath id="clip0_31_57">
<rect width="42" height="42" fill="white"/>
</clipPath>
</defs>
</svg>
