<svg width="16" height="16" viewBox="0 0 16 16" fill="none" xmlns="http://www.w3.org/2000/svg">
<path d="M14.9969 12.3406C14.9969 11.7281 15.1281 9.30623 13.2219 7.38123C11.9594 6.10935 10.35 5.4531 8.11563 5.33435C8.05 5.33123 7.99687 5.27498 7.99687 5.20935V2.62498C7.99687 2.52498 7.8875 2.4656 7.80312 2.51873L1.05625 6.96248C0.98125 7.01248 0.98125 7.12185 1.05625 7.17185L7.80312 11.6156C7.8875 11.6719 7.99687 11.6125 7.99687 11.5094V8.95935C7.99687 8.88748 8.05625 8.83123 8.12813 8.83435C9.50625 8.88748 10.3 9.17498 11.1625 9.55935C12.2906 10.0656 13.4406 11.15 14.1156 12.1687C14.525 12.7906 14.7156 13.2281 14.7844 13.4094C14.8063 13.4625 14.8563 13.4969 14.9125 13.4969H15.0031C15 13.1312 14.9969 12.6625 14.9969 12.3406V12.3406Z" fill="white"/>
</svg>
